<?xml version="1.0" encoding="UTF-8" standalone="no"?>
<svg
   xmlns:dc="http://purl.org/dc/elements/1.1/"
   xmlns:cc="http://creativecommons.org/ns#"
   xmlns:rdf="http://www.w3.org/1999/02/22-rdf-syntax-ns#"
   xmlns:svg="http://www.w3.org/2000/svg"
   xmlns="http://www.w3.org/2000/svg"
   viewBox="0 0 204.38867 48.714531"
   height="48.714531"
   width="204.38867"
   xml:space="preserve"
   id="svg2"
   version="1.1"><metadata
     id="metadata8"><rdf:RDF><cc:Work
         rdf:about=""><dc:format>image/svg+xml</dc:format><dc:type
           rdf:resource="http://purl.org/dc/dcmitype/StillImage" /></cc:Work></rdf:RDF></metadata><defs
     id="defs6"><clipPath
       id="clipPath22"
       clipPathUnits="userSpaceOnUse"><path
         id="path20"
         d="M 0,0 H 154 V 37 H 0 Z" /></clipPath><clipPath
       id="clipPath36"
       clipPathUnits="userSpaceOnUse"><path
         id="path34"
         d="M 0,0 H 154 V 37 H 0 Z" /></clipPath><clipPath
       id="clipPath56"
       clipPathUnits="userSpaceOnUse"><path
         id="path54"
         d="M 0,0 H 154 V 37 H 0 Z" /></clipPath><clipPath
       id="clipPath72"
       clipPathUnits="userSpaceOnUse"><path
         id="path70"
         d="M 0,0 H 154 V 37 H 0 Z" /></clipPath></defs><g
     transform="matrix(1.3333333,0,0,1.3333333,0,1.5511966e-6)"
     id="g10"><g
       id="g12"><g
         id="g14"><g
           id="g16"><g
             clip-path="url(#clipPath22)"
             id="g18"><g
               id="g24"><path
                 id="path26"
                 style="fill:#1b1937;fill-opacity:1;fill-rule:nonzero;stroke:none"
                 d="m 6.504,13.227 c -0.637,0.003 -4.102,1.132 -4.102,6.089 0,5.258 4.039,5.317 4.211,5.317 h 9.778 c 4.293,0 8.351,-4.406 8.351,-9.071 V 5.676 c 0,-0.512 -1.019,-3.274 -5.543,-3.274 -4.461,0 -5.918,2.844 -5.918,3.825 v 5.8 c 0,0.664 -0.535,1.2 -1.199,1.2 z m 9.887,13.808 H 6.613 C 4.773,27.035 0,25.648 0,19.316 0,12.84 4.766,10.824 6.504,10.824 h 4.375 V 6.227 C 10.879,4.055 13.32,0 19.199,0 c 5.946,0 7.946,3.898 7.946,5.676 v 9.886 c 0,6.004 -5.125,11.473 -10.754,11.473" /></g></g></g></g><g
         id="g28"><g
           id="g30"><g
             clip-path="url(#clipPath36)"
             id="g32"><g
               id="g38"><path
                 id="path40"
                 style="fill:#37b187;fill-opacity:1;fill-rule:nonzero;stroke:none"
                 d="m 31.492,9.5 h -4.355 l 0.004,2.402 h 4.351 c 0.172,0 4.211,0.063 4.211,5.317 0,4.957 -3.465,6.086 -4.101,6.09 h -5.579 c -0.664,0 -1.199,0.539 -1.199,1.199 v 5.801 c 0,0.98 -1.457,3.824 -5.918,3.824 -4.523,0 -5.543,-2.766 -5.543,-3.274 v -9.886 c 0,-4.661 4.059,-9.071 8.352,-9.071 h 3.027 V 9.5 h -3.027 c -5.629,0 -10.754,5.469 -10.754,11.473 v 9.886 c 0,1.778 2,5.676 7.945,5.676 5.879,0 8.317,-4.055 8.317,-6.226 v -4.598 h 4.379 c 1.738,0 6.503,-2.012 6.503,-8.492 0,-6.332 -4.773,-7.719 -6.613,-7.719" /></g></g></g></g><path
         id="path42"
         style="fill:#1b1937;fill-opacity:1;fill-rule:nonzero;stroke:none"
         d="m 52.23,8.305 v 2.89 H 51.988 C 51.809,10.438 51.473,9.859 50.98,9.461 50.488,9.059 49.93,8.855 49.309,8.855 c -0.52,0 -1,0.153 -1.434,0.45 -0.434,0.3 -0.75,0.691 -0.953,1.175 -0.258,0.618 -0.387,1.309 -0.387,2.067 0,0.746 0.094,1.426 0.281,2.039 0.192,0.613 0.485,1.074 0.887,1.391 0.402,0.312 0.922,0.468 1.563,0.468 0.523,0 1.004,-0.117 1.437,-0.343 0.438,-0.231 0.899,-0.625 1.383,-1.188 v 0.719 c -0.465,0.488 -0.953,0.844 -1.461,1.062 -0.504,0.219 -1.098,0.328 -1.773,0.328 -0.887,0 -1.68,-0.179 -2.372,-0.535 -0.691,-0.355 -1.222,-0.871 -1.601,-1.539 -0.371,-0.668 -0.559,-1.379 -0.559,-2.133 0,-0.793 0.207,-1.55 0.621,-2.261 0.418,-0.715 0.981,-1.266 1.688,-1.66 0.707,-0.395 1.461,-0.59 2.254,-0.59 0.586,0 1.207,0.125 1.859,0.379 0.375,0.148 0.617,0.222 0.719,0.222 0.129,0 0.242,-0.047 0.336,-0.14 0.101,-0.098 0.164,-0.254 0.191,-0.461 z m 4.118,0.668 v 3.394 h 0.164 c 0.527,0 0.914,-0.164 1.148,-0.496 0.238,-0.332 0.391,-0.824 0.457,-1.473 h 0.235 v 4.368 h -0.235 c -0.051,-0.477 -0.152,-0.864 -0.312,-1.168 -0.157,-0.305 -0.34,-0.508 -0.547,-0.61 -0.211,-0.105 -0.516,-0.16 -0.91,-0.16 v 2.352 c 0,0.457 0.015,0.738 0.054,0.84 0.039,0.101 0.114,0.187 0.219,0.253 0.109,0.067 0.281,0.098 0.52,0.098 h 0.496 c 0.781,0 1.402,-0.18 1.871,-0.543 0.469,-0.359 0.808,-0.91 1.012,-1.644 h 0.23 l -0.375,2.648 h -7.207 v -0.227 h 0.277 c 0.243,0 0.434,-0.043 0.582,-0.128 0.106,-0.059 0.188,-0.157 0.246,-0.297 0.047,-0.098 0.067,-0.356 0.067,-0.774 V 9.922 C 54.34,9.543 54.332,9.312 54.312,9.227 54.27,9.082 54.195,8.973 54.082,8.895 53.926,8.777 53.715,8.723 53.445,8.723 H 53.168 V 8.496 h 6.977 v 2.465 H 59.914 C 59.793,10.355 59.625,9.926 59.41,9.664 59.195,9.398 58.891,9.207 58.5,9.086 58.27,9.012 57.84,8.973 57.207,8.973 Z m 8.101,-0.477 4.113,5.168 v -3.582 c 0,-0.5 -0.07,-0.84 -0.214,-1.016 C 68.152,8.828 67.82,8.715 67.359,8.723 V 8.496 h 2.754 v 0.227 c -0.351,0.043 -0.59,0.105 -0.715,0.175 -0.117,0.071 -0.21,0.188 -0.281,0.352 -0.066,0.16 -0.097,0.438 -0.097,0.832 v 6.941 h -0.211 l -5.637,-6.941 v 5.301 c 0,0.476 0.109,0.801 0.324,0.969 0.223,0.168 0.477,0.253 0.758,0.253 h 0.195 v 0.227 h -2.957 v -0.227 c 0.461,-0.003 0.781,-0.097 0.961,-0.285 0.18,-0.183 0.27,-0.496 0.27,-0.937 V 9.496 L 62.543,9.273 C 62.367,9.055 62.211,8.91 62.078,8.84 61.941,8.77 61.746,8.73 61.492,8.723 V 8.496 Z m 13.903,0 V 10.75 H 78.129 C 78,10.23 77.852,9.855 77.691,9.633 77.531,9.402 77.312,9.219 77.035,9.086 76.879,9.012 76.605,8.973 76.219,8.973 h -0.621 v 6.433 c 0,0.426 0.019,0.692 0.066,0.797 0.047,0.109 0.141,0.203 0.277,0.285 0.137,0.078 0.329,0.117 0.567,0.117 h 0.273 v 0.227 h -4.363 v -0.227 h 0.277 c 0.243,0 0.434,-0.043 0.582,-0.128 0.106,-0.059 0.192,-0.157 0.254,-0.297 0.043,-0.098 0.067,-0.356 0.067,-0.774 V 8.973 h -0.602 c -0.562,0 -0.969,0.121 -1.226,0.359 -0.356,0.332 -0.582,0.805 -0.676,1.418 H 70.863 V 8.496 Z" /><path
         id="path44"
         style="fill:#1b1937;fill-opacity:1;fill-rule:nonzero;stroke:none"
         d="m 91.754,18.859 c -0.621,0.313 -1.281,0.465 -1.981,0.465 -0.621,0 -1.183,-0.094 -1.695,-0.285 -1.098,-0.406 -2.031,-1.195 -2.801,-2.375 -0.199,-0.285 -0.57,-0.836 -1.109,-1.644 -0.543,-0.813 -0.891,-1.329 -1.051,-1.551 -0.277,-0.438 -0.5,-0.676 -0.668,-0.719 v -0.117 c 0.008,0 0.016,0 0.024,0 0.015,0 0.031,0 0.047,0 0.015,0 0.031,0 0.046,0 0.016,0 0.039,0 0.063,0 0.023,0 0.043,0 0.059,0 0.406,0 0.777,-0.09 1.121,-0.274 0.515,-0.289 0.777,-0.816 0.777,-1.586 0,-0.566 -0.16,-1 -0.481,-1.3 C 83.789,9.16 83.406,9.008 82.961,9.008 h -0.906 v 6.953 c 0,0.207 0.074,0.387 0.226,0.535 0.153,0.145 0.332,0.215 0.539,0.215 h 0.153 v 0.121 H 79.348 V 16.711 H 79.5 c 0.199,0 0.375,-0.07 0.527,-0.215 0.153,-0.141 0.231,-0.316 0.239,-0.523 V 9.352 C 80.258,9.145 80.18,8.969 80.027,8.828 79.883,8.676 79.707,8.602 79.5,8.602 H 79.348 V 8.48 h 4.09 c 1.027,0 1.824,0.235 2.386,0.704 0.446,0.367 0.668,0.882 0.668,1.55 0,0.668 -0.219,1.215 -0.656,1.637 -0.43,0.414 -0.922,0.621 -1.477,0.621 -0.05,0 -0.101,-0.004 -0.156,-0.012 0.324,0.172 0.598,0.368 0.809,0.582 0.222,0.215 0.414,0.418 0.574,0.61 0.168,0.191 0.305,0.363 0.418,0.512 0.121,0.144 0.273,0.339 0.465,0.586 0.191,0.238 0.39,0.488 0.597,0.75 0.207,0.265 0.434,0.535 0.68,0.812 0.254,0.27 0.531,0.527 0.836,0.777 0.309,0.246 0.621,0.45 0.941,0.606 0.676,0.344 1.418,0.519 2.231,0.527 z" /><path
         id="path46"
         style="fill:#1b1937;fill-opacity:1;fill-rule:nonzero;stroke:none"
         d="m 92.395,8.379 c 1.328,-0.051 2.406,0.336 3.234,1.16 0.832,0.824 1.25,1.856 1.25,3.094 0,1.058 -0.313,1.988 -0.93,2.793 -0.82,1.062 -1.98,1.597 -3.476,1.597 -1.5,0 -2.661,-0.507 -3.477,-1.527 -0.648,-0.801 -0.973,-1.754 -0.973,-2.859 0,-1.235 0.418,-2.266 1.262,-3.09 0.844,-0.828 1.879,-1.219 3.11,-1.168 z m 0.074,0.391 c -0.762,0 -1.344,0.39 -1.742,1.168 -0.321,0.64 -0.485,1.558 -0.485,2.757 0,1.422 0.25,2.473 0.75,3.153 0.348,0.476 0.836,0.714 1.465,0.714 0.422,0 0.773,-0.105 1.055,-0.308 0.363,-0.262 0.644,-0.68 0.843,-1.254 0.204,-0.578 0.301,-1.332 0.301,-2.258 0,-1.101 -0.101,-1.926 -0.304,-2.472 C 94.145,9.723 93.883,9.336 93.562,9.109 93.246,8.883 92.883,8.77 92.469,8.77 Z m 14.008,5.222 2.261,-5.496 h 3.395 v 0.227 h -0.27 c -0.246,0 -0.441,0.043 -0.59,0.129 -0.101,0.058 -0.183,0.152 -0.246,0.289 -0.047,0.097 -0.066,0.355 -0.066,0.769 v 5.496 c 0,0.426 0.019,0.692 0.066,0.797 0.047,0.109 0.137,0.203 0.278,0.285 0.14,0.078 0.324,0.117 0.558,0.117 h 0.27 v 0.227 h -4.352 v -0.227 h 0.27 c 0.246,0 0.441,-0.043 0.59,-0.128 0.105,-0.059 0.183,-0.157 0.246,-0.297 0.047,-0.098 0.07,-0.356 0.07,-0.774 V 9.227 l -3.199,7.605 h -0.149 l -3.246,-7.551 v 5.871 c 0,0.41 0.012,0.664 0.032,0.758 0.054,0.203 0.167,0.371 0.343,0.504 0.18,0.125 0.461,0.191 0.844,0.191 v 0.227 h -2.855 v -0.227 h 0.085 c 0.188,0.004 0.36,-0.027 0.52,-0.085 0.16,-0.067 0.281,-0.153 0.363,-0.258 0.082,-0.11 0.145,-0.258 0.188,-0.45 0.008,-0.046 0.015,-0.253 0.015,-0.628 V 9.91 c 0,-0.426 -0.023,-0.687 -0.07,-0.789 -0.043,-0.105 -0.137,-0.199 -0.277,-0.277 -0.137,-0.082 -0.324,-0.121 -0.559,-0.121 h -0.265 V 8.496 h 3.406 z m 9.316,-5.019 v 3.394 h 0.168 c 0.527,0 0.91,-0.164 1.148,-0.496 0.239,-0.332 0.391,-0.824 0.457,-1.473 h 0.235 v 4.368 h -0.235 c -0.05,-0.477 -0.156,-0.864 -0.316,-1.168 -0.152,-0.305 -0.336,-0.508 -0.547,-0.61 -0.207,-0.105 -0.512,-0.16 -0.91,-0.16 v 2.352 c 0,0.457 0.019,0.738 0.059,0.84 0.039,0.101 0.113,0.187 0.218,0.253 0.11,0.067 0.282,0.098 0.516,0.098 h 0.5 c 0.777,0 1.402,-0.18 1.871,-0.543 0.469,-0.359 0.809,-0.91 1.012,-1.644 h 0.226 l -0.375,2.648 h -7.203 v -0.227 h 0.274 c 0.242,0 0.437,-0.043 0.586,-0.128 0.105,-0.059 0.187,-0.157 0.246,-0.297 0.047,-0.098 0.066,-0.356 0.066,-0.774 V 9.922 c 0,-0.379 -0.008,-0.61 -0.031,-0.695 -0.039,-0.145 -0.117,-0.254 -0.227,-0.332 -0.156,-0.118 -0.367,-0.172 -0.64,-0.172 h -0.274 V 8.496 h 6.977 v 2.465 h -0.235 c -0.117,-0.606 -0.285,-1.035 -0.504,-1.297 -0.21,-0.266 -0.515,-0.457 -0.91,-0.578 -0.226,-0.074 -0.66,-0.113 -1.289,-0.113 z m 5.137,7.859 v -0.227 h 0.277 c 0.242,0 0.426,-0.039 0.551,-0.113 0.133,-0.078 0.23,-0.18 0.289,-0.312 0.039,-0.086 0.055,-0.344 0.055,-0.774 V 9.922 c 0,-0.426 -0.02,-0.695 -0.067,-0.801 -0.043,-0.105 -0.137,-0.199 -0.277,-0.277 -0.133,-0.082 -0.32,-0.121 -0.551,-0.121 H 120.93 V 8.496 h 3.73 c 0.996,0 1.797,0.133 2.406,0.402 0.743,0.332 1.301,0.836 1.684,1.508 0.387,0.672 0.578,1.434 0.578,2.282 0,0.585 -0.094,1.128 -0.281,1.624 -0.192,0.493 -0.434,0.899 -0.735,1.223 -0.296,0.32 -0.644,0.578 -1.039,0.774 -0.386,0.195 -0.867,0.343 -1.429,0.449 -0.25,0.051 -0.645,0.074 -1.184,0.074 z m 3.179,-7.863 v 6.504 c 0,0.343 0.016,0.554 0.047,0.632 0.035,0.079 0.09,0.137 0.168,0.18 0.11,0.063 0.27,0.094 0.477,0.094 0.687,0 1.211,-0.234 1.57,-0.703 0.492,-0.633 0.738,-1.61 0.738,-2.938 0,-1.07 -0.168,-1.926 -0.504,-2.566 -0.269,-0.5 -0.609,-0.84 -1.027,-1.02 -0.297,-0.129 -0.785,-0.187 -1.469,-0.183 z m 10.356,7.636 v 0.227 h -4.36 v -0.227 h 0.278 c 0.242,0 0.437,-0.043 0.586,-0.128 0.105,-0.059 0.187,-0.157 0.246,-0.297 0.043,-0.098 0.066,-0.356 0.066,-0.774 V 9.922 c 0,-0.426 -0.023,-0.695 -0.066,-0.801 -0.047,-0.105 -0.137,-0.199 -0.277,-0.277 -0.137,-0.082 -0.321,-0.121 -0.555,-0.121 h -0.278 V 8.496 h 4.36 v 0.227 h -0.274 c -0.242,0 -0.437,0.043 -0.586,0.129 -0.105,0.058 -0.191,0.156 -0.25,0.293 -0.046,0.101 -0.07,0.359 -0.07,0.777 v 5.484 c 0,0.426 0.024,0.692 0.07,0.797 0.047,0.109 0.141,0.203 0.274,0.285 0.141,0.078 0.328,0.117 0.562,0.117 z m 8.695,-8.3 v 2.89 h -0.242 c -0.18,-0.757 -0.516,-1.336 -1.008,-1.734 -0.492,-0.402 -1.051,-0.606 -1.672,-0.606 -0.519,0 -1,0.153 -1.433,0.45 -0.434,0.3 -0.75,0.691 -0.953,1.175 -0.258,0.618 -0.387,1.309 -0.387,2.067 0,0.746 0.094,1.426 0.281,2.039 0.192,0.613 0.484,1.074 0.887,1.391 0.402,0.312 0.922,0.468 1.562,0.468 0.524,0 1.004,-0.117 1.438,-0.343 0.441,-0.231 0.902,-0.625 1.383,-1.188 v 0.719 c -0.465,0.488 -0.954,0.844 -1.461,1.062 -0.504,0.219 -1.094,0.328 -1.774,0.328 -0.886,0 -1.679,-0.179 -2.371,-0.535 -0.687,-0.355 -1.222,-0.871 -1.598,-1.539 -0.374,-0.668 -0.562,-1.379 -0.562,-2.133 0,-0.793 0.207,-1.55 0.621,-2.261 0.418,-0.715 0.981,-1.266 1.688,-1.66 0.707,-0.395 1.461,-0.59 2.253,-0.59 0.586,0 1.208,0.125 1.86,0.379 0.375,0.148 0.617,0.222 0.719,0.222 0.129,0 0.242,-0.047 0.336,-0.14 0.101,-0.098 0.164,-0.254 0.191,-0.461 z m 5.551,0.074 c 1.328,-0.051 2.406,0.336 3.23,1.16 0.836,0.824 1.25,1.856 1.25,3.094 0,1.058 -0.308,1.988 -0.929,2.793 -0.821,1.062 -1.977,1.597 -3.473,1.597 -1.5,0 -2.66,-0.507 -3.48,-1.527 -0.649,-0.801 -0.973,-1.754 -0.973,-2.859 0,-1.235 0.422,-2.266 1.262,-3.09 0.843,-0.828 1.882,-1.219 3.113,-1.168 z m 0.07,0.391 c -0.761,0 -1.34,0.39 -1.738,1.168 -0.324,0.64 -0.484,1.558 -0.484,2.757 0,1.422 0.25,2.473 0.75,3.153 0.347,0.476 0.836,0.714 1.461,0.714 0.421,0 0.777,-0.101 1.058,-0.308 0.36,-0.262 0.641,-0.68 0.844,-1.254 0.199,-0.578 0.301,-1.332 0.301,-2.258 0,-1.101 -0.102,-1.926 -0.309,-2.472 -0.203,-0.547 -0.469,-0.934 -0.785,-1.161 -0.317,-0.226 -0.684,-0.339 -1.098,-0.339 z" /><g
         id="g48"><g
           id="g50"><g
             clip-path="url(#clipPath56)"
             id="g52"><g
               id="g58"><g
                 transform="scale(1,-1)"
                 id="g60"><path
                   id="path62"
                   style="fill:none;stroke:#1b1937;stroke-width:0.249;stroke-linecap:butt;stroke-linejoin:miter;stroke-miterlimit:10;stroke-dasharray:none;stroke-opacity:1"
                   d="M 44.266,-19.703 H 84.25" /></g></g></g></g></g><g
         id="g64"><g
           id="g66"><g
             clip-path="url(#clipPath72)"
             id="g68"><g
               id="g74"><g
                 transform="scale(1,-1)"
                 id="g76"><path
                   id="path78"
                   style="fill:none;stroke:#1b1937;stroke-width:0.249;stroke-linecap:butt;stroke-linejoin:miter;stroke-miterlimit:10;stroke-dasharray:none;stroke-opacity:1"
                   d="m 95.078,-19.703 h 58.215" /></g></g></g></g></g><path
         id="path80"
         style="fill:#37b187;fill-opacity:1;fill-rule:nonzero;stroke:none"
         d="m 79.551,27.332 h -2.324 l -0.278,0.641 c -0.09,0.211 -0.137,0.386 -0.137,0.527 0,0.184 0.075,0.32 0.227,0.406 0.086,0.055 0.301,0.094 0.645,0.117 v 0.18 h -2.192 v -0.18 c 0.238,-0.035 0.434,-0.132 0.586,-0.289 0.149,-0.164 0.336,-0.496 0.563,-0.996 l 2.351,-5.254 h 0.094 l 2.375,5.399 c 0.227,0.512 0.41,0.836 0.559,0.969 0.109,0.097 0.265,0.156 0.464,0.171 v 0.18 h -3.183 v -0.18 h 0.129 c 0.258,0 0.437,-0.035 0.539,-0.105 0.07,-0.051 0.105,-0.125 0.105,-0.223 0,-0.058 -0.008,-0.121 -0.027,-0.179 -0.008,-0.032 -0.055,-0.153 -0.145,-0.364 z m -0.164,-0.359 -0.981,-2.27 -1.008,2.27 z m 10.066,-4.5 v 2.32 h -0.18 c -0.218,-0.637 -0.543,-1.117 -0.976,-1.449 -0.434,-0.328 -0.906,-0.492 -1.422,-0.492 -0.492,0 -0.902,0.136 -1.227,0.414 -0.328,0.277 -0.558,0.66 -0.695,1.156 -0.137,0.496 -0.203,1.004 -0.203,1.523 0,0.633 0.074,1.188 0.223,1.66 0.148,0.477 0.386,0.829 0.718,1.051 0.332,0.223 0.727,0.336 1.184,0.336 0.16,0 0.32,-0.019 0.484,-0.051 0.168,-0.035 0.34,-0.086 0.516,-0.148 v -1.371 c 0,-0.258 -0.016,-0.426 -0.055,-0.5 -0.035,-0.078 -0.109,-0.149 -0.222,-0.207 -0.11,-0.063 -0.243,-0.094 -0.403,-0.094 h -0.168 v -0.18 h 3.2 v 0.18 c -0.247,0.016 -0.415,0.051 -0.512,0.102 -0.094,0.05 -0.168,0.132 -0.219,0.25 -0.027,0.058 -0.043,0.211 -0.043,0.449 v 1.371 c -0.422,0.187 -0.859,0.328 -1.316,0.422 -0.453,0.097 -0.922,0.144 -1.41,0.144 -0.625,0 -1.145,-0.086 -1.559,-0.254 -0.414,-0.171 -0.777,-0.394 -1.094,-0.667 -0.312,-0.278 -0.558,-0.59 -0.738,-0.938 -0.227,-0.445 -0.34,-0.945 -0.34,-1.5 0,-0.988 0.348,-1.828 1.043,-2.508 0.695,-0.683 1.574,-1.027 2.629,-1.027 0.324,0 0.621,0.027 0.883,0.078 0.14,0.027 0.371,0.102 0.687,0.223 0.321,0.121 0.512,0.179 0.571,0.179 0.089,0 0.171,-0.031 0.25,-0.093 0.078,-0.071 0.148,-0.196 0.214,-0.379 z m 7.152,4.422 -0.246,2.308 h -5.847 v -0.18 h 0.218 c 0.192,0 0.344,-0.031 0.461,-0.101 0.086,-0.043 0.149,-0.121 0.196,-0.234 0.035,-0.075 0.054,-0.282 0.054,-0.61 v -4.332 c 0,-0.336 -0.019,-0.547 -0.054,-0.629 -0.035,-0.086 -0.11,-0.156 -0.219,-0.219 -0.106,-0.066 -0.254,-0.097 -0.438,-0.097 h -0.218 v -0.18 h 3.511 v 0.18 h -0.289 c -0.187,0 -0.343,0.035 -0.461,0.101 -0.082,0.047 -0.148,0.125 -0.199,0.235 -0.035,0.078 -0.051,0.281 -0.051,0.609 v 4.195 c 0,0.336 0.02,0.551 0.059,0.645 0.039,0.094 0.113,0.16 0.227,0.207 0.082,0.027 0.277,0.043 0.586,0.043 h 0.55 c 0.348,0 0.641,-0.063 0.875,-0.184 0.231,-0.125 0.434,-0.32 0.602,-0.586 0.172,-0.261 0.332,-0.656 0.484,-1.171 z m 3.997,2.128 v 0.18 H 97.16 v -0.18 h 0.215 c 0.191,0 0.348,-0.031 0.465,-0.101 0.082,-0.043 0.148,-0.121 0.191,-0.234 0.035,-0.075 0.055,-0.282 0.055,-0.61 v -4.332 c 0,-0.336 -0.02,-0.547 -0.055,-0.629 -0.035,-0.086 -0.109,-0.156 -0.219,-0.219 -0.105,-0.066 -0.25,-0.097 -0.437,-0.097 H 97.16 v -0.18 h 3.442 v 0.18 h -0.219 c -0.192,0 -0.348,0.035 -0.461,0.101 -0.086,0.047 -0.152,0.125 -0.199,0.235 -0.035,0.078 -0.055,0.281 -0.055,0.609 v 4.332 c 0,0.336 0.02,0.547 0.055,0.629 0.039,0.086 0.109,0.16 0.218,0.227 0.11,0.058 0.254,0.089 0.442,0.089 z m 4.359,-1.691 h -2.324 l -0.278,0.641 c -0.089,0.211 -0.132,0.386 -0.132,0.527 0,0.184 0.074,0.32 0.222,0.406 0.086,0.055 0.301,0.094 0.645,0.117 v 0.18 h -2.188 v -0.18 c 0.235,-0.035 0.43,-0.132 0.582,-0.289 0.153,-0.164 0.34,-0.496 0.563,-0.996 l 2.355,-5.254 h 0.09 l 2.375,5.399 c 0.227,0.512 0.41,0.836 0.559,0.969 0.109,0.097 0.265,0.156 0.465,0.171 v 0.18 h -3.184 v -0.18 h 0.129 c 0.258,0 0.437,-0.035 0.539,-0.105 0.074,-0.051 0.109,-0.125 0.109,-0.223 0,-0.058 -0.011,-0.121 -0.031,-0.179 -0.004,-0.032 -0.055,-0.153 -0.145,-0.364 z m -0.164,-0.359 -0.981,-2.27 -1.007,2.27 z m 5.683,-4.352 3.247,4.082 v -2.828 c 0,-0.395 -0.055,-0.664 -0.168,-0.801 -0.157,-0.187 -0.418,-0.281 -0.782,-0.273 v -0.18 h 2.172 v 0.18 c -0.277,0.035 -0.465,0.082 -0.562,0.14 -0.094,0.055 -0.168,0.149 -0.223,0.278 -0.051,0.125 -0.078,0.343 -0.078,0.656 v 5.48 h -0.164 l -4.453,-5.48 v 4.184 c 0,0.379 0.086,0.632 0.258,0.765 0.175,0.133 0.375,0.199 0.597,0.199 h 0.156 v 0.18 h -2.335 v -0.18 c 0.363,-0.003 0.617,-0.078 0.757,-0.222 0.145,-0.145 0.215,-0.395 0.215,-0.742 v -4.645 l -0.14,-0.176 c -0.141,-0.176 -0.262,-0.289 -0.372,-0.343 -0.105,-0.055 -0.257,-0.086 -0.46,-0.094 v -0.18 z m 8.836,4.711 h -2.324 l -0.277,0.641 c -0.09,0.211 -0.133,0.386 -0.133,0.527 0,0.184 0.074,0.32 0.223,0.406 0.086,0.055 0.3,0.094 0.644,0.117 v 0.18 h -2.187 v -0.18 c 0.234,-0.035 0.429,-0.132 0.582,-0.289 0.152,-0.164 0.34,-0.496 0.562,-0.996 l 2.356,-5.254 h 0.09 l 2.375,5.399 c 0.226,0.512 0.41,0.836 0.558,0.969 0.11,0.097 0.266,0.156 0.465,0.171 v 0.18 h -3.184 v -0.18 h 0.129 c 0.258,0 0.438,-0.035 0.539,-0.105 0.075,-0.051 0.11,-0.125 0.11,-0.223 0,-0.058 -0.012,-0.121 -0.032,-0.179 -0.003,-0.032 -0.054,-0.153 -0.144,-0.364 z m -0.164,-0.359 -0.98,-2.27 -1.008,2.27 z" /></g></g></svg>